<svg width="362" height="126" xmlns="http://www.w3.org/2000/svg"><g fill="none" fill-rule="evenodd"><text font-family="PlayfairDisplay-Regular, Playfair Display" font-size="56" letter-spacing="5.08" transform="translate(-2)"><tspan x="0" y="94" fill="#838383">ISA</tspan> <tspan x="98.344" y="94" fill="#3E3E3E">BELLA</tspan></text><text font-family="Poppins-Medium, Poppins Medium" font-size="16" letter-spacing="4.08" fill="#838383" transform="translate(-2)"><tspan x="46" y="125">WEDDING PLANNER</tspan></text><path d="M350.326 72.522c-.465-.365-1.105-.424-1.554-.989-.122-.154-.42-.117-.674-.176-.23-.344.454-.654.055-1.12l-.532.844-.442-.354c-.152-.433.343-.743-.004-1.181-.171.23-.307.439-.468.617-.045.05-.175.045-.24.005-.063-.038-.142-.163-.13-.231.05-.304.13-.6.2-.9l.116-.451c-.524.166-.515.71-.8 1.074-.317-.134-.665-.278-1.022-.428l.05-1.084c.022-.038.048-.1.09-.144.256-.275.484-.621.784-.793.276-.158.635-.104.95-.184.313-.08.62-.197.924-.324.554-.23 1.089-.309 1.579.181.089.089.195.169.252.283.69 1.373 1.332 2.766 1.37 4.424.01.426-.07.751-.504.931zm-.08.773l.579-1c.289.556.289.556-.578 1zm-.041 0c-.106-.42.29-.69.6-1 .452.338.323.545-.6 1zm-1.27.728c-.122-.394.215-.68.766-1 .073.102.261.228.195.3-.217.242-.21.57-.961.7zm-.709-1.212c-.129-.337.032-.636.341-.91.117-.103.341-.142.614.015-.28.29-.456.624-.955.895zm-.125-.735c-.177.18-.31.376-.747.493-.054-.081-.155-.157-.142-.226.079-.42.161-.517.59-.774.369.116.537.267.299.507zm-.619-.552l.364-.925c.557.124.67.205.512.372-.205.218-.45.42-.677.628l-.199-.075zm-1-1.076c.386-.181.647-.066.878.114.256.2.098.558-.357.795-.243-.255-.364-.573-.52-.91zm1.752 4.89c.397 1.025.484 2.071-.483 2.9-.255-.152-.487-.33-.757-.44-.32-.132-.312-.376-.382-.612l-.905-.018.512-.96c-.46-.42-.523.222-.897.221-.281-.188-.334-.442-.157-.754.148-.264.454-.475.388-.834-.484-.068-.428.405-.767.532-.714-.517-.002-1.008.129-1.604l-.856.444c-.005-.88.977-1.288 1.098-2.068-.452.032-.56.329-.765.51-.195.17-.346.378-.558.615l-.319-.733c.096-.135.157-.296.285-.384.464-.32.95-.616 1.422-.915.752.266 1.044.841 1.444 1.327.7.85 1.19 1.8 1.568 2.773zm-1.7 4.147c-.134-.425.052-.595.222-.705.24-.154.448-.008.732.46l-.955.245zm-1.62-1.336c-.04-.387-.045-.388.403-1 .197.166.377.25.364.318-.056.296-.327.515-.767.682zm-.207-.667c-.148.127-.278.263-.445.381a.5.5 0 0 1-.293.036c-.076-.02-.156-.1-.15-.152.04-.321.4-.546.71-.84.24.216.414.374.178.575zm-.647.418c-.045.02-.14-.007-.228-.013-.077-.4.201-.71.626-.98.326.034.406.181.34.313a1.378 1.378 0 0 1-.738.68zm-.727-2.176c.045-.382.553-.598.983-1 .078.443-.103.6-.983 1zm-.564-1.212c-.481-.432.224-.63.432-1l.403.384c-.206.184-.387.356-.586.52-.053.044-.159.063-.249.096zm.26-.97c-.229-.328-.215-.62-.11-1l.87.106c.197.422-.134.67-.76.894zm1.066-5.468c.306-.296.077-.621-.395-.641-.155-.007-.31.003-.465.007-.056.236-.173.479-.143.704.061.455-.207.743-.472 1.05-.173-.202-.412-.017-.67-.11.03-.492.056-1.003.092-1.514.058-.796.33-1.494 1.114-2.015.135.007.334.048.523.025.506-.062.923.002 1.1.522.595.278.754.828.944 1.345.435 1.19.234 2.644-.514 3.739-.21.06-.455.138-.705.201-.25.063-.503.11-.77.168.103-.442.103-.442.913-.571.271-.432.166-1.129.93-1.198l.013-1.24c-.293.05-.61.195-.74.105-.265-.18-.476-.131-.726-.092.013.726.03.738.84.576.066.194-.094.295-.226.345-.271.102-.563.159-.895.248-.071-.14-.203-.275-.188-.393.055-.442.051-.885.44-1.261zm-2.223 4.012c-.098.01-.262-.04-.31-.1-.157-.192-.273-.402-.415-.621l.619-.277c.485.202.355.548.381.844.005.05-.17.143-.275.154zm.702-.01a.42.42 0 0 1-.229-.28c-.01-.062.159-.222.233-.214.097.011.18.144.313.265-.139.105-.259.25-.317.228zm-1.302 1.952c-.109-.105-.193-.156-.232-.229-.117-.223-.294-.445-.105-.709.022-.031.075-.065.111-.061.183.017.467.61.424.89-.004.025-.072.042-.198.11zm-1.083.729c-.483-.213-.478-.516-.737-.782l.529-.218c.122.046.23.065.254.1.192.291.39.585-.046.9zm-.362.97c-.235-.237-.422-.397-.556-.572-.153-.196-.02-.337.385-.428.048.147.057.296.15.42.08.109.256.19.403.292l-.382.288zm.117-2.16c.025.073-.15.23-.272.29-.137.066-.393.02-.463.104-.086.103.028.321-.052.435-.25.357-.55.688-.865 1.072-.167-.09-.36-.139-.448-.248-.788-.984-1.372-2.049-1.703-3.21-.125-.437.063-.838.242-1.223.168-.362.42-.698.658-1.034a1.6 1.6 0 0 1 .421-.418c1.032-.669 2.044-1.382 3.428-1.448.36-.017.65-.119.868-.419 0 .374.012.715 0 1.055-.022.606-.026 1.205.245 1.784.146.31.156.638-.163.87-.254.183-.377.37-.396.656-.01.148-.216.287-.366.47-.174-.247-.31-.437-.432-.612-.287.028-.394.14-.32.328.095.245.22.483.343.749-.119.112-.208.217-.321.298-.188.136-.515.169-.404.502zm-1.322 3.859l-.867-.25.729-.75c.449.298.226.586.138 1zm-.995-12.317l.576-.54.04-.528c.275.098.354.283.242.548-.1.239-.229.46-.376.751.127.116.25.247.389.346.13.092.15.207.11.355-.423-.146-.645-.566-.981-.932zm2.02 1.401c.026-.664.035-.66.584-1 .074.478-.139.773-.584 1zm.874.242c.118-.446.279-.737.758-1 .135.46-.15.71-.758 1zm.47-.515c-.01.03-.012.078-.029.084-.036.013-.079.003-.12.003l.046-.147.103.06zm-3.32-4.624c-.003-.196.027-.414.132-.584.608-.992 1.31-1.93 2.425-2.604.641-.388 1.295-.747 2.134-.768.14-.004.276-.073.438-.119.496.758.874 1.509.833 2.37-.016.323.052.65.035.974-.023.425-.082.85-.145 1.273-.074.496-.17.99-.265 1.536-.545.142-.813.672-1.407.847-.226-.185-.1-.34-.005-.491.234-.374.472-.745.697-1.1-.185-.16-.27-.058-.328.014-.317.395-.624.797-.922 1.182-.202-.039-.28-.112-.215-.224.25-.43.511-.853.768-1.28.076-.127.147-.256.211-.369-.184-.14-.272-.055-.333.024-.233.294-.469.588-.678.894-.134.196-.26.387-.512.538-.254-.198-.135-.387-.023-.55.315-.46.658-.905.974-1.363.064-.094.059-.22.119-.471-.776.614-1.122 1.327-1.735 1.862l-.163-.093c-.33-.18.095-.632-.403-.75-.108-.31-.26-.616-.314-.933-.05-.293.02-.6.01-.9-.004-.134-.07-.266-.14-.516-.42.499-.587.926-.523 1.412.042.32.176.626.115.968-.026.145.217.323.357.513-.17.293-.256.64-.66.879-.294-.73-.465-1.44-.477-2.171zm7.714 4.72c-.134.1-.305.153-.466.213-.033.012-.084-.022-.232-.066.025-.125.022-.176.044-.212.123-.198.26-.414.532-.268.083.044.153.309.122.333zm-1.025-5.365c.281-.254.506-.546.77-.811.374-.375.522-.38 1.086-.211.449.134.806.345 1.114.627.14.128.283.253.438.368.652.484.663.848.03 1.413-.068.062-.15.114-.288.216.075.24.165.428.184.621.013.129-.022.327-.129.385-.406.218-.427.56-.488.9-.215-.009-.421-.066-.538-.008-.121.06-.195.226-.218.354-.03.164.046.341.011.504-.026.124-.15.234-.27.404l-.573-.521c-.08.156-.153.244-.163.335-.009.078.058.16.09.24.25.643.243.655-.555 1.055-.36-.308-.68-.655-1.09-.91-.423-.265-.551-.57-.492-.96.095-.615.19-1.23.297-1.843.073-.42.166-.836.25-1.254.069-.342.24-.639.534-.904zm4.185 1.632c.07-.36.106-.733.166-1.171.362.44.428.94.297 1.491-.301 1.266-.676 2.485-1.198 3.6-.16.345-.295.737-.59.909-.215-.544-.208-.61.082-.81.426-.294.448-.301.362-.903-.036-.256.015-.425.115-.565.29-.406.406-.92.503-1.46.067-.372.191-.721.263-1.09zm-19.23 18.845c-.423.365-.86.523-1.304.68-.371.131-.532-.1-.697-.554.661-.687 1.337-.352 2-.126zm1.212-.937c-.254.24-.506.485-.764.72-.335.305-.689.14-1.236.111.74-.565 1.297-1.043 2-.83zm.938-1.233c.058-.012.131.048.198.076-.063.031-.126.086-.188.086-.069 0-.138-.025-.207-.047.064-.046.126-.1.197-.115zm-.203.937c.527-.463 1.147-.632 1.817-.694.574-.053 1.146-.122 1.72-.149.193-.009.395.073.582.141.542.201 1.08.41 1.615.629.184.074.392.15.522.286.549.58 1.266.9 1.934 1.293.92.542 1.848 1.07 2.778 1.595.451.255.919.482 1.371.736.217.122.415.277.688.462-.177.136-.273.239-.391.296-.754.367-1.514.721-2.27 1.084-.184.089-.332.075-.468-.144.517-.615 1.34-.85 1.996-1.478-.173-.002-.25-.026-.302 0-1.028.528-2.051 1.064-3.08 1.591a1.054 1.054 0 0 1-.4.124c-.275.017-.495.1-.686.31-.102.112-.257.11-.375-.088.37-.35.767-.68 1.212-.945.437-.26.884-.502 1.35-.765-.29-.327-.743-.114-1.066-.396.3-.29.6-.578.881-.851-.11-.212-.225-.152-.32-.103-.436.223-.867.454-1.272.669-.575-.231-.575-.231-.866-.574.07-.44.848-.303.763-.964-.411.173-.77.336-1.137.475-.331.126-.336.115-.808-.106.076-.448.85-.469.692-1.079-.569.132-.986.61-1.607.644.255-.45.255-.45.56-.606.214-.11.47-.178.622-.523-.865.056-1.484.615-2.314.744.192-.338.45-.4.712-.479.129-.038.264-.14.139-.364-.848.115-1.642.633-2.643.514l.427-.77c-.12-.03-.242-.104-.31-.07-.358.178-.704.382-1.043.572-.16-.136-.068-.235.018-.287.296-.18.605-.338.904-.512.166-.097.323-.211.645-.423-.314-.012-.454-.056-.56-.014-.619.24-1.227.505-1.844.75a2.946 2.946 0 0 1-.661.195c-.117.017-.248-.071-.498-.153.401-.23.727-.357.973-.573zm13.319 4.286l.239.203c-.093.06-.18.147-.28.165-.065.012-.15-.076-.227-.119l.268-.249zm-3.573 1.515c.022-.071.024-.17.072-.205.058-.042.155-.027.235-.037.006.07.01.142.02.254l-.327-.012zm-2.638-.79c-.144.069-.375-.031-.637-.062l-.814.647c-.134-.206.02-.274.12-.359.497-.425.98-.87 1.504-1.262.393-.295.822-.517 1.375-.279.22.095.515.033.949.05-.943.484-1.71.895-2.497 1.265zm-2.62-.026c-.23.134-.471.17-.824.067 1.03-.808 2.355-1.173 3.397-1.94l.603.374c-.054.064-.075.123-.123.143-.787.35-1.498.812-2.398.998-.241.05-.44.234-.655.358zm-3.006.55c.627-.61 1.495-.933 2.233-1.41.228-.149.49-.259.739-.384.42-.215.42-.215 1.028.193-.647.312-1.266.618-1.89.914-.473.224-.955.436-1.429.657-.227.106-.451.129-.681.03zm2.049-.19l.63-.322c-.094.198-.136.468-.63.322zm-2.253-.838l-.54-.254c1.205-.67 2.397-1.263 3.806-1.746l1.194.317c-1.14.347-1.987.682-2.898.858-.712.138-1.251.329-1.562.825zm-1.495-.466c1.054-.65 1.921-1.193 2.797-1.722.38-.23.77-.263 1.203.08-.098.091-.174.195-.275.248-.85.451-1.702.901-2.56 1.333-.432.217-.44.2-1.165.061zm1.184.695c-.043.039-.168-.012-.389-.036.097-.18.12-.295.186-.33.15-.076.321-.114.485-.162.002-.001.055.1.04.123-.099.143-.196.29-.322.405zm-1.061-1.69c.798-.268 1.594-.538 2.4-.8.49-.16.986-.069 1.598.028-1.333.334-2.628.6-3.936.885-.047-.084-.072-.11-.062-.113zm-.237-.32c-.619.157-1.088.382-1.35.934l-.477-.2c.04-.11.039-.188.084-.217.71-.451 1.415-.91 2.146-1.34.49-.288 1.033-.359 1.77.003-.825.32-1.472.643-2.173.82zm-1.36-1.263c-.04-.14-.06-.203-.074-.266-.003-.014.018-.035.034-.045.417-.3.875-.534 1.4-.665a.726.726 0 0 1 .566.084c-.61.338-1.33.407-1.927.892zm-16.396 17.961c-.04.087-.174.13-.267.192-.008-.122-.056-.26-.014-.362.043-.104.175-.17.32-.3-.012.21.013.357-.04.47zm-.006 8.724c.003.658.024 1.315.005 1.971-.02.74.134 1.48-.04 2.222-.052.216.002.455.016.683.024.397.091.795.077 1.191-.054 1.513.016 3.022.081 4.533.02.449-.006.9-.01 1.35l-.111.016c-.06-.117-.145-.229-.173-.352-.26-1.14-.575-2.268-.7-3.434a13.098 13.098 0 0 1-.047-2.558c.06-.685.18-1.365.22-2.05.033-.597-.024-1.198-.015-1.796.015-1.171.023-2.338-.094-3.508-.075-.734-.012-1.485.042-2.224.052-.71.066-1.425.235-2.13.079-.325.023-.681.026-1.023.005-.912.233-1.8.346-2.7.132-1.049.312-2.093.48-3.138a7.17 7.17 0 0 1 .177-.842c.11-.39.136-.777.139-1.184.003-.593.09-1.195.223-1.777.192-.837.436-1.655.435-2.529 0-.595.158-1.19.228-1.787.2-1.677.398-3.354.58-5.032.043-.394-.019-.8.034-1.193.233-1.699.49-3.395.736-5.093.037-.256.066-.511.104-.804.503-.324.664-.782.418-1.358a1.438 1.438 0 0 1-.088-.84c.158-.902.281-1.81.426-2.714.059-.367.152-.729.205-1.096.052-.366.06-.736.113-1.101.057-.396.112-.797.223-1.18.142-.496.337-.978.517-1.463.015-.04.094-.06.143-.088.03-.001.07-.013.086 0 .018.016.02.054.018.082-.025.427-.023.858-.084 1.28-.097.68-.227 1.355-.357 2.03-.092.479-.207.954-.312 1.43-.013.056-.046.11-.048.166-.03 1.025-.3 2.027-.286 3.06.008.596-.103 1.194-.173 1.79-.198 1.678-.41 3.355-.603 5.035-.077.68-.112 1.366-.182 2.048-.043.426-.122.85-.17 1.276-.05.425-.144.858-.107 1.278.061.696-.065 1.363-.175 2.041-.18 1.13-.438 2.266-.432 3.399.008 1.368-.341 2.658-.592 3.975a38.76 38.76 0 0 0-.298 1.866 147.86 147.86 0 0 0-.403 3.062c-.06.51-.074 1.025-.118 1.538-.052.626-.103 1.252-.174 1.877-.067.597-.163 1.191-.24 1.787-.105.82-.228 1.642-.298 2.466-.044.511-.005 1.028-.003 1.542zm5.56-49.463c.244-.487.207-1.032.961-1.635l-.627 2c-.304-.237-.372-.292-.335-.365zm-.947 1.481c-.063.14-.156.265-.238.396-.024-.036-.074-.075-.069-.107.021-.156.057-.31.104-.549.122.153.216.231.203.26zm-.352.52c.057-.286.113-.572.18-.903.441.387.128.646-.18.903zm1.83-7.215c.006-.04.033-.075.052-.111.026.018.075.04.073.054-.007.039-.035.074-.054.11-.026-.017-.073-.04-.07-.053zm-1.892 11.386c-.02-.34.153-.626.407-1 .233.334.154.484-.407 1zm-.144 5.638l-.149-.046.057-.101c.031.01.079.01.087.03.014.034.004.078.005.117zm-.418-2.663l-.165.837-.118-.023.166-.837.117.023zm.916-.87c.079-.285-.082-.652.607-.937-.042.688-.164 1.248-.357 2-.386-.465-.326-.79-.25-1.063zm.692-13.915c.013-.962.045-1.923.05-2.884.005-.57.033-1.15-.05-1.712-.205-1.38-.076-2.757-.05-4.136a33.99 33.99 0 0 0-.237-4.68c-.032-.262-.142-.514-.233-.828.227-.201.43-.43.679-.592.783-.507 1.217-1.26 1.584-2.064.149-.328.273-.667.424-1.035.277-.103.53-.015.698.227.308.449.79.543 1.27.646.417.09.837.164 1.299.253-.008 1.134.226 2.24-.291 3.299-.063.129-.073.293-.071.44.01 1.278-.25 2.508-.645 3.72-.116.357-.307.727-.008 1.12.076.1.01.354-.064.503-.493 1.002-1.036 1.983-1.502 2.996-.43.932-.787 1.896-1.165 2.85-.5 1.26-.986 2.525-1.482 3.785-.019.049-.086.08-.13.119-.028-.047-.077-.093-.077-.14-.004-.63-.008-1.259.001-1.887zm-.26-2.5l-.284-1c.546.307.596.564.283 1zm-.194-8.146c-.02.302-.037.523-.053.741-.116-.214-.283-.427.053-.74zm-.1-4.255c-.392-.218-.426-.501-.25-.83.15-.28.296-.563.483-.923-.53.081-.582.523-.987.655-.319-.513-.24-1.12-.557-1.654l1.057-1.374c.863.904.674 2.048 1.245 2.986.056-.088.114-.135.107-.175-.191-1.153-.499-2.279-1.126-3.327-.114-.188-.244-.37-.338-.565-.324-.667-.383-.728-1.153-1.062.027-.115.038-.245.09-.363.053-.12.146-.227.24-.368.708.123 1.233.495 1.738.862.587.427 1.147.884 1.278 1.601.044.248.222.497.402.705.29.333.282.684.21 1.056-.232 1.193-.983 2.086-2.181 2.72-.075.04-.178.04-.258.056zm-.768.76l-.637-.24.563-.76c.39.42.39.42.074 1zm-1.276-1.212c-.062-.101-.192-.207-.147-.258.22-.255.487-.495.74-.742.4.341.4.341-.593 1zm.942-4.966c0-.167-.026-.343.007-.503.048-.243.214-.404.347-.397.183.01.265.16.342.316l.294.596c-.177.427-.492.689-.796 1.088-.145-.493.07-.776.173-1.084l-.367-.016zm-.665 3.996c-.032-.37.092-.695.402-1 .34.48.341.487-.402 1zm.126-.219c-.024.004-.086-.068-.082-.1.037-.318.242-.44.53-.463-.04.272-.116.517-.448.563zm-.341-1.993c.319.094.341.212.245.346-.19.262-.554.426-.928.654-.166-.498.653-.628.683-1zm.532-.97c.063.478-.435.699-.857 1-.264-.639-.235-.67.857-1zm-.571-.48c.073-.135.223-.236.36-.318.022-.013.148.152.285.297l-.541.358c-.04-.115-.143-.266-.104-.338zm-2.225-.144c-.232.006-.514.083-.681-.15-.205-.285-.437-.097-.726-.088l-.557-.897c.544-.248 1.029-.524 1.61-.165l.207.676c.119-.004.206.005.287-.013a.333.333 0 0 0 .154-.097c.086-.086.237-.187.232-.272-.03-.496.605-.7.485-1.22-.313-.093-.553.043-.795.4l-.185-.77c-.205-.08-.45-.179-.722-.288.05-.086.092-.224.135-.224.325-.004.56-.355.936-.22.163.059.323-.195.3-.384-.027-.232-.089-.319-.457-.643-.564.366-.564.366-1.219.09-.626.668-.482 1.387 0 2.218l-1.133-.233c-.119-1.647.594-3.057 1.285-4.518.503-.06.981-.247 1.508-.165.343.054.638.151.884.417.143.153.333.26.48.41.101.103.206.235.241.374.192.759.363 1.524.54 2.287.015.062.033.123.039.185.005.062.023.153-.008.184-.463.45-.063 1.155-.476 1.651-.353.423-1.826 1.439-2.364 1.455zm-.449-.658c0-.017.07-.04.108-.06.02.075.048.15.054.226.001.02-.068.043-.105.065-.02-.077-.049-.152-.057-.23zm.679 2.783c-.561-.52-.797-.525.153-2 .407.286.318.685.352 1.02.035.364-.125.722-.505.98zm-1.16 1.61c-.085.062-.243.083-.36.07-.082-.01-.185-.095-.22-.168-.102-.213-.175-.437-.326-.828.293.108.408.119.458.174.14.156.131.397.42.47.197.05.118.214.028.281zm-.337 1.044c-.858-.413-.918-.52-.566-1 .57.272.932.556.566 1zm.066-4.351c.02-.16.145-.338.293-.453.103-.082.336-.106.495-.085.082.011.187.18.182.275-.028.56-.336 1.048-.812 1.718a2.924 2.924 0 0 1-.158-1.455zm-.204 4.252c-.24.133-.49.167-.673-.122.37-.631.37-.631.938-.78.114.37.097.703-.265.902zm-1.032-4.815l-.153.203c-.026-.038-.082-.089-.072-.11.033-.072.09-.133.137-.199l.088.106zm.083-.65c-.075-.096-.2-.188-.208-.29-.006-.078.134-.168.21-.253l.297.297a87.28 87.28 0 0 0-.299.247zm-.21 4.684c-.336.252-.598.45-1 .294-.115-.046-.241-.056-.344-.078-.231-.256-.451-.493-.664-.738-.107-.122-.202-.257-.302-.387-.641-.83-.685-1.685-.184-2.638.423-.806.913-1.515 1.706-2.104.009 1.306-.044 2.523.26 3.745.139-.189.249-.337.358-.487.095-.064.194-.122.285-.192.073-.057.135-.133.199-.197l.243.347.242-.762.14.014.227 1.535c-.418.5-.583 1.211-1.165 1.648zm-.73-6.79l.409-.848c.199.159.343.252.456.368.166.172.186.397.014.545-.103.09-.33.087-.503.087-.1 0-.2-.076-.377-.151zm1.291-2.705l-.593.916c-.071-.495.017-.767.313-1l.28.084zm-1.14 6.79c-.021-.552-.113-1.11.207-1.647.033-.056.15-.095.234-.138.024-.011.073-.007.112-.01.342.099.342.306.372.48.078.462.142.929-.535 1.29-.09.049-.102.148-.14.23-.097-.068-.248-.135-.25-.204zm1.326-5.177c-.218-.09-.43-.198-.662-.31l.164-.855c-.469-.072-.312.433-.592.556-.394-.292-.488-.827-.763-1.198-.31-.002-.372.161-.256.362.122.212.305.39.439.555l-.837 1.238c-.176-1.022-.153-1.831-.007-2.637.09-.496.193-.99.312-1.478.088-.364.218-.717.317-1.078.234-.854 1.11-.958 1.806-.646.48.214.91.503 1.299.864.34.316.69.62 1.024.942.15.143.166.329.042.51a.912.912 0 0 1-.12.142c-.484.464-.843.998-.903 1.702-.004.048-.071.091-.113.14-.32-.14-.563-.35-.7-.7-.202-.51-.592-.873-.992-1.217a.548.548 0 0 0-.326-.143c-.104 0-.228.076-.3.158-.042.047-.003.172.005.262.003.03.021.065.043.082.699.544 1.04 1.38 1.617 2.075l-.28.63c-.103.024-.172.064-.217.044zm-.519.6c-.215.243-.344.532-.893.644-.1-.279-.092-.532.067-.782.106-.166.322-.25.549-.206.242.047.396.21.277.344zm-1.354.417c-.694-.567-.585-1.137.273-2 .744.731-.271 1.28-.273 2zm3.827-10.473c.745-.5 1.626-.537 2.538-.363.726.14 1.274.522 1.891.947-.065.158-.123.332-.205.495-.43.853-.863 1.705-1.302 2.554-.135.263-.25.554-.456.763-.286.29-.41.587-.36.97.055.423-.314.697-.451 1.177-.142-.248-.275-.382-.286-.523-.022-.288-.001-.584.041-.871.184-1.26.556-2.476 1.057-3.66.112-.265.197-.54.17-.886-.107.084-.263.148-.316.255-.788 1.6-1.465 3.232-1.701 4.99-.02.156-.092.306-.143.47-.671.132-1.183-.21-1.705-.43-.286-.12-.375-.458-.333-.77.058-.417.13-.834.187-1.252.026-.192.083-.402.028-.577-.134-.42-.203-.82.06-1.215-.162-.996.547-1.578 1.286-2.074zm3.576 4.118c.385.27.189.549-.001 1-.245-.451-.135-.73 0-1zm-.048 1.581c-.08.01-.19.055-.232.02-.056-.047-.058-.157-.082-.239.08-.01.191-.058.231-.024.056.05.058.16.083.243zm1.498-5.401c.478.353.573.92.554 1.523-.025.73-.299 1.351-.651 1.936l-.363-.5c-.292.208-.317.451-.291.702.03.28.113.555.116.833 0 .173-.106.348-.284.506-.03-.289-.066-.576-.089-.864-.027-.335-.242-.343-.436-.392.49-1.758.979-3.039 1.444-3.744zm-.185 5.448c-.366.285-.598.558-1 .584.112-.385.148-.74.441-1l.56.416zm1.878-.93c.348-1.004.594-2.088.914-3.115.15-.483.37-.918.567-1.363.042-.095.13-.143.293-.314-.081.648-.144 1.129-.202 1.612-.067.557-.182 1.101-.12 1.687.026.256-.021.535-.053.798-.084.689-.178 1.375-.281 2.16-.444.208-.841.596-1.344.743.034-.794-.018-1.5.226-2.208zm-4.154 9.057c-.012.055-.146.124-.213.113-.071-.01-.185-.118-.178-.169.03-.21.099-.414.153-.62l.312.04c-.021.212-.028.428-.074.636zm.775-3.692l-.213 1c-.287-.578-.317-.872.213-1zm1.097.82l-.473.291c-.071-.14-.223-.303-.193-.417.035-.13.232-.216.359-.32l.307.445zm1.135-.223l-.597.887c-.389-.25-.484-.446-.337-.648.229-.316.496-.474.934-.24zm3.732-4.66c.342-.016.61.44.614.808.007.593.203 1.098.294 1.647.037.224.028.46.042.709-.12.147-.215.337-.351.417-.727.42-1.456.84-2.199 1.21-.727.365-1.455.19-2.186-.07-.23-.082-.502.007-.756.024a3.339 3.339 0 0 1 1.525-1.19c1.023-.405 2.05-.785 3.076-1.179.1-.038.193-.1.393-.206-.209-.051-.323-.121-.421-.096-.865.22-1.729.45-2.59.696a15.8 15.8 0 0 0-1.314.446c-.305.117-.6.278-.931.435l-.246-1.013c.525-.608 1.053-1.16 1.696-1.514.099-.054.189-.152.29-.173.588-.127 1.097-.51 1.645-.765.459-.213.949-.164 1.419-.186zm.09 7.683c.254.482.385.954.418 1.486.029.485-.008.536-.513.507l.07-1.124c-.308.172-.208.716-.55.765.052-.628.234-1.15.575-1.634zm-.34 1.02c.184-.352.429-.661.669-1.02.046.098.106.167.095.212-.136.545-.669 1.512-.977 1.788-.078-.373.065-.693.214-.98zm1.259-4.671c-.031-.182.219-.281.474-.205.006.782-.27 1.432-.982 1.974-.07-.295.077-.465.151-.647.149-.363.435-.67.357-1.122zm-1.158 1.468l.178.705c-.213.402-.407.795-.62 1.162-.114.198-.25.176-.38-.075.151-.678.458-1.2.822-1.792zm-1.65.993c.116-.155.123-.153.736-.25-.282.395-.516.69-.908 1-.224-.323.013-.533.173-.75zm.114-.111c-.095-.347.052-.645.262-.925.386-.512.81-.975 1.708-1.048-.4.6-.728 1.123-1.094 1.622-.19.258-.46.45-.876.351zm-2.076-.593c.122-.419.361-.773 1-1-.039.562-.555.762-1 1zm.652 1.183l.834.126-.758.874c-.352-.299-.268-.596-.076-1zm2.998-12.082c.269.005.295.157.349.28.46 1.058.876 2.124 1.22 3.222.247.785.486 1.607 1.022 2.307.153.201.247.45.329.687.436 1.268.94 2.524 1.267 3.816.339 1.338.05 2.593-1.125 3.578-.044.036-.102.058-.157.082-.027.012-.06.012-.154.028-.03-.15-.122-.317-.077-.444.15-.421.336-.833.532-1.239.146-.304.337-.59.491-.891.047-.093.038-.209.074-.446-.679.584-1.046 1.205-1.46 1.93-.235-.315-.264-.569-.208-.853.114-.58.336-1.124.618-1.652.073-.135.096-.293.166-.523-.625.257-.637.84-1.136 1.189.08-.205.118-.336.18-.46.315-.63.639-1.258.95-1.891.07-.143.103-.301.047-.5-.282.387-.573.77-.844 1.164-.256.374-.491.76-.74 1.15-.366-.326-.401-.386-.175-.693.298-.403.47-.836.571-1.308a3.985 3.985 0 0 0-.08-2.056c-.132-.423-.268-.846-.284-1.302-.019-.513-.446-.836-.906-1.077-.342-.179-.715-.31-1.065-.459-.24-.415.095-.763.156-1.135.048-.295.157-.578.16-.89.007-.552.168-1.085.28-1.614zm-13.602 73.07c-.427-.362-.734-.678-.515-1.191.074-.174.027-.417-.058-.597-.212-.452-.237-.923-.23-1.387.018-.93.096-1.86.148-2.79l.133-.035c.083.154.194.303.244.464.314 1.004.358 2.038.475 3.064-.266.791.214 1.63-.197 2.472zm-3.415.279c-.072-.539-.03-1.103-.055-1.661-.002-.05.065-.107.12-.191l.88 1.885c-.486.158-.486.158-.945-.033zm-.345-3.816c.07-.836.01-1.683.16-2.516.012-.066-.034-.144-.078-.305-.253.31-.22.645-.298.93-.076.278-.107.569-.163.854-.059.292.06.635-.215.921-.39-.493-.243-1.078-.363-1.588-.116-.495.065-1.024-.105-1.53-.292.5-.251 1.09-.481 1.767-.125-.819.007-1.492-.06-2.154-.3-.01-.35.196-.393.39-.06.273-.105.55-.153.814-.258.041-.332-.147-.365-.295a4.446 4.446 0 0 1-.126-.945c-.001-.403-.21-.71-.347-1.05-.023-.059-.206-.102-.272-.065-.066.037-.124.2-.1.28.036.126.155.222.217.344.043.085.048.193.116.49-.207-.2-.292-.252-.337-.33-.618-1.062-1.108-2.189-1.542-3.349-.292-.78-.637-1.537-.967-2.3a32.484 32.484 0 0 0-.674-1.48c-.068-.139-.2-.241-.307-.359l.034-.683c.255.217.443.33.571.496.328.427.682.811 1.096 1.15.295.24.49.616.763.894.982 1 1.913 2.055 2.888 3.065 1.026 1.064 1.912 2.295 2.524 3.714.12.277.15.54.103.842-.164 1.059-.305 2.12-.458 3.18-.024.169-.06.335-.12.66-.29-.682-.606-1.155-.548-1.842zm.006 3.737c-.294-.16-.553-.234-.557-.313a5.414 5.414 0 0 1 .48-2.584c.018-.04.107-.07.163-.103.072.023.2.042.209.072.235.936.198 1.863-.295 2.928zm-2.113-.455c-.315-1.666-.067-3.292.111-5 .385.27.457.758.738 1.033-.145.7-.269 1.364-.423 2.017-.152.645-.032 1.372-.426 1.95zm-.522-1.394c.067-.86.134-1.72.208-2.581.014-.16.083-.326-.192-.46-.365.91-.442 1.85-.788 2.794-.422-.308-.34-.674-.321-.976.048-.748.185-1.492.27-2.24.012-.115-.069-.238-.158-.523-.436.98-.433 1.881-.886 2.785-.385-.408-.572-.764-.6-1.19-.03-.44.001-.89-.212-1.302-.318-.079-.284.19-.485.307l-.412-.717c.258-.433.296-.883.261-1.346-.448-.027-.231.38-.572.437-.153-.533-.377-1.058-.404-1.61-.038-.776-.201-1.54-.125-2.328.139-1.452.163-2.912.234-4.369.106.124.24.238.3.376.622 1.41 1.305 2.805 1.816 4.243.376 1.059 1.053 1.981 1.62 2.952.27.462.775.83 1.168 1.243.29.304.572.614.842.906-.176.741-.355 1.446-.508 2.156-.151.705-.276 1.414-.413 2.124-.517-.088-.67-.335-.643-.68zm-4.188-13.846l-.009.264c-.144-.093-.048-.178.01-.264zm11.77-10.612c-.223-.246-.469-.472-.659-.75-.1-.147-.101-.389-.149-.596l-.311-.073c-.208-.71.009-1.542-.399-2.425l-.188 2.121c-.132-.233-.222-.321-.227-.416-.02-.39-.016-.781-.015-1.172.001-.302.021-.603.01-.903-.005-.101-.08-.197-.17-.403-.27.633-.144 1.278-.435 1.842l-.478-.387.203-2.493c-.463.511-.357 1.194-.646 1.768-.264-.603.043-1.204-.162-1.74-.17-.065-.198.08-.222.234-.046.287.003.62-.28.789-.292-.174-.356-.51-.368-.836-.016-.418.029-.839.045-1.258.009-.195.013-.39.022-.687-.45.294-.303.822-.509 1.132-.267-.147-.272-.152-.136-.359.173-.261.175-.258-.04-.679-.26-.01-.2.3-.296.437-.034.004-.057.015-.072.005a.147.147 0 0 1-.052-.061c-1.645-3.327-1.645-3.327-1.678-4.238.105.077.184.126.253.189.606.549 1.187 1.143 1.822 1.64.462.36.962.655 1.432 1.01.867.653 1.63 1.466 2.264 2.4 1.08 1.594 1.878 3.37 2.025 5.471.027.38.117.752.204 1.29-.33-.357-.56-.604-.787-.852zm1.249-.215c-.056-.116-.114-.23-.162-.349-.002-.006.096-.073.112-.062.094.066.177.147.27.23l-.22.181zm-1.214 1.022c-.246-.008-.276-.11-.275-.237.003-.23-.008-.462-.015-.763.788.107.808.215.29 1zm.192-1.364c-.021 0-.042-.069-.063-.107.064-.035.127-.069.19-.105l.098.175c-.075.014-.15.037-.225.037zm-.982 2.07l-.358.052c-.366-.985-.403-1.944-.022-3l.73.802c-.079.63-.157 1.264-.243 1.897-.01.08-.065.154-.107.25zm-1.453-.19c-.355-1.11.052-2.033.594-3 .072.08.232.17.201.236-.322.702-.383 1.419-.49 2.134-.024.162-.15.32-.305.63zm-1.9-.483c-.072-.064-.207-.129-.208-.193 0-.825.004-1.651.23-2.466.047-.173.144-.298.38-.341.27.082.44.199.377.463-.193.791-.36 1.586-.552 2.377-.015.062-.15.107-.228.16zm-.85-1.213c-.132-.341-.081-.635-.049-.923.057-.507.142-1.014.23-1.52.028-.159.085-.319.166-.471.023-.045.177-.089.265-.085.084.003.207.062.231.112.05.107.091.23.06.338a99.33 99.33 0 0 1-.689 2.321c-.019.063-.106.117-.213.228zm-.48-.212c-.303-.098-.35-.404-.33-.714.045-.769.093-1.54.178-2.303.07-.627.192-1.245.31-1.983.412.377.559.71.492 1.153-.183 1.227-.37 2.453-.558 3.679-.01.06-.059.11-.091.168zm-.644-1.53c-.569-.195-.562-.473-.509-.779.134-.761.252-1.525.371-2.289.008-.048-.032-.1-.073-.213-.655.61-.555 1.38-.99 2.068-.434-.362-.195-.743-.186-1.083.01-.365.134-.728.244-1.272-.275.202-.423.263-.472.355-.104.195-.156.404-.26.692-.496-.465-.63-.963-.795-1.433-.466-1.322-.452-2.65.025-4.046 1.193 1.638 2.086 3.322 3.634 4.807-.355 1.072-.657 2.125-.989 3.193zm7.023-19.822c-.036-.246.152-.406.203-.608.055-.218.17-.426.113-.726-.09.064-.178.091-.208.152-.21.429-.409.864-.614 1.296-.059.126-.124.251-.292.197.041-.526.384-1.51.701-1.987.492.099.904.37 1.299.72-.432.29-.598.893-1.202.956zm-1.348-.898c-.318.41-.586.84-.733 1.31-.11.35-.364.43-.736.41-.138-.832.044-1.608.7-2.984.535-.073.847.195 1.257.359-.086.344-.277.632-.488.905zm-.283.262c-.248.46-.237.972-.576 1.461-.547-.195-.735-.449-.621-.806.178-.558.314-1.124.823-1.608.11-.103.184-.234-.021-.335.287-.356.68-.277 1.166-.106-.18.488-.522.931-.771 1.394zm-2.418.685l-.139.288c-.454.054-.102-.388-.422-.453-.34-.068-.126-.33-.11-.503.07-.718.35-1.379.699-1.987.286-.11.485-.037.653.117.193.177.378.363.567.545-.624.561-.92 1.285-1.248 1.993zm-.011-4.097c-.249-.123-.524-.254-.478-.566.031-.206.176-.397.283-.62-.45.009-.45.009-1.045.284-.242-.158-.54-.314-.785-.523-.66-.562-1.275-1.164-1.771-1.868-.1-.142-.256-.247-.378-.376-.262-.276-.548-.54-.584-.942.336-.027.527.245.795.36.588.25 1.153.555 1.754.777.945.349 1.912.647 2.87.967.88.295 1.631.807 2.412 1.268.208.122.415.247.629.359 1.151.603 1.85 1.574 2.412 2.654.066.128.094.276.126.418.01.051-.02.111-.038.194-.469.017-.9-.133-1.334-.267-.34-.105-.293-.402-.362-.656-.476-.185-.951.175-1.43.004-.429-.152-.87-.271-1.252-.388-.238-.444.052-.78.137-1.19-.562.124-.487.617-.737.868-.715-.31-.715-.31-.583-1.233-.314.083-.314.083-.641.476zm-.593 1.757c-.23.265-.319.601-.48.903-.042.077-.126.142-.247.275-.204-.336-.269-.598-.16-.904.124-.356.193-.724.31-1.177-.512.372-.579.838-.975 1.244-.016-.114-.013-.181-.038-.242-.034-.08-.093-.155-.137-.234-.045-.083-.117-.167-.12-.251-.002-.114.047-.23.077-.344.022-.091.045-.183.076-.274.032-.09.073-.178.112-.266.037-.089.067-.18.12-.264.05-.081.125-.153.239-.288.376.27.52.626 1.042.635.1.002.264.208.275.326.026.284.163.565-.094.861zm-3.052-1.382c-.295-.146-.029-.333-.094-.497l-.263-.273c.131-.394-.073-.918.415-1.23l.585.502c-.201.518-.324 1.053-.643 1.498zm-.165-.985c.007-.064.004-.13.023-.192.014-.044.079-.085.087-.129.012-.066-.003-.134-.011-.201-.005-.045-.046-.093-.022-.133.038-.065.11-.124.178-.184.044-.039.088-.09.16-.108.108-.028.242-.032.423-.053.126.415-.36.698-.838 1zm-.128-1.197c-.32-.618-.536-1.426-.55-2l1 1.11c-.044.408-.246.636-.45.89zm20.527 3.388c.018.076.065.161.047.228-.02.07-.1.124-.153.185-.038-.066-.122-.155-.103-.194.042-.087.137-.148.209-.219zm1.327-1.515c.065-.195.197-.343.305-.507-.133 1.13-.467 2.12-1 3 .006-.097-.006-.205.02-.29.219-.738.435-1.48.675-2.203zm.161-.447c.03-.262.06-.538.11-1 .276.55.112.787-.11 1zm.52-1.848l-.148.755c-.254-.408-.183-.624.149-.755zm9.14-20.795c.054-.902.254-1.758.633-2.545.26-.54.55-1.06.818-1.594.072-.143.172-.284.184-.56-.705.567-.913 1.485-1.468 2.18-.057-.144-.131-.24-.12-.316.042-.258.091-.522.18-.762.2-.543.43-1.07.638-1.608.06-.153.092-.32.174-.615-.44.304-.485.83-.813 1.046-.19-.106-.15-.303-.092-.454.24-.615.497-1.22.76-1.855-.031-.114-.124-.123-.222-.058-.125.083-.242.184-.446.344.052-.386.097-.667.127-.95.055-.529.116-1.058.147-1.59a7.563 7.563 0 0 1 .501-2.297c.024.165.085.336.064.493-.17 1.31.179 2.533.411 3.778.168.9.326 1.8.477 2.703.145.87-.045 1.61-.526 2.314a8.868 8.868 0 0 0-1.083 2.227c-.043.132-.099.257-.187.485-.081-.182-.161-.277-.156-.366zm-.071 3.264c-1.144-1.087-.766-1.961-.061-3 .15.23.256.319.258.409.017.629.024 1.26.008 1.889-.004.171-.096.341-.205.702zm-1.984-2.424c-.202-.1-.227-.339-.23-.571-.002-.147.035-.297.063-.443.016-.087.041-.172.072-.25.06-.158.125-.314.193-.467.188-.424.379-.847.569-1.27.154.603.149 1.093-.114 1.574-.229.417-.369.937-.553 1.427zm.3-1.06c-.053.06-.14.098-.304.21.037-.233.02-.397.09-.523.485-.858.908-1.753 1.828-2.477.19.562.043.953-.363 1.341-.465.445-.835.965-1.251 1.448zm-.433-1.943c-.163-.17-.12-.39-.066-.6.352-1.334.77-2.616 1.487-3.68.137-.201.215-.474.316-.72.214.258.114.62.137.93.03.4-.012.81-.024 1.251-.556.915-1.125 1.855-1.7 2.789-.024.04-.098.022-.15.03zm-1.052-2.017c-.298-.234-.227-.429-.036-.636.514-.562 1.021-1.126 1.52-1.695.079-.09.112-.202.16-.307-.519.173-.683.598-1.12.832-.156.084-.298.182-.44.27-.288-.147-.182-.287-.092-.414.299-.424.607-.843.912-1.265l-.345-.342c.171-.25.342-.523.54-.784.332-.438.678-.871 1.028-1.302.14-.171.3-.335.464-.495.638-.616 1.281-1.23 1.94-1.862.31.108.305.304.21.494a9.157 9.157 0 0 1-.59 1.041c-.588.866-.96 1.767-.963 2.74-.002.483-.273.92-.512 1.362-.16.07-.341.127-.461.223a14.042 14.042 0 0 0-1.99 1.911c-.063.075-.141.144-.225.23zm3.059 5.503c-.204-.003-.165-.166-.153-.304a.715.715 0 0 1 .034-.171c.23-.677.457-1.355.697-2.026.064-.179.171-.333.258-.499a12.654 12.654 0 0 1-.836 3zM349.947 2.69c.006-.552.08-1.105.139-1.655.04-.366.15-.685.424-.862.263.1.33.432.326.753-.006.588-.006 1.193-.102 1.758-.163.958-.294 1.92-.379 2.897a3.53 3.53 0 0 1-.517 1.592c.005-.32-.019-.65.022-.962.15-1.17.075-2.346.087-3.52zm-.407 6.338c.243-.286.438-.64.793-.773.03-.012.072.014.143.03l-.434 1.967c-.357-.201-.589-.485-.565-.973.004-.086.016-.196.063-.251zm1.805-4.555c.128-.122.158-.367.181-.561.058-.493.247-.882.69-1.17.339-.22.599-.556.938-.774.553-.357 1.129-.203 1.335.396.171.498.32 1.059.259 1.567-.09.756-.363 1.494-.583 2.231-.056.185-.208.342-.38.616-.548-.088-1.05-.188-1.557-.244-.469-.052-.943-.055-1.466-.083.052-.742.008-1.43.583-1.978zm3.724 2.77c.577.368 1.102.753 1.322 1.338.102.273.34.516.556.826-.455.063-.716-.302-1.085-.14-.028.012-.127-.043-.17-.081-.226-.207-.458-.413-.665-.631-.375-.395-.719-.809-1.103-1.198-.275-.278-.597-.53-.977-.863.459-.134.898-.1 1.057.114.26.348.723.416 1.065.635zm-.596-.581c.232-.171.509-.329.802-.419.568-.174 1.153-.345 1.751-.422.41-.052.857.053 1.284.1.33.035.632.124.834.354-.06.238-.167.474-.172.712-.014.623.004.623-.712.983-.075-.048-.158-.097-.234-.152-.078-.057-.15-.12-.212-.17-.73-.043-.689.491-1.125.944-.07-.279-.102-.373-.117-.469-.046-.304-.177-.479-.345-.434-.315.083-.265.304-.263.492.001.11.11.235.069.325-.05.106-.209.18-.364.301-.218-.226-.378-.41-.562-.58a5.99 5.99 0 0 0-.586-.484c-.473-.336-.514-.734-.048-1.081zm3.459 1.89c-.013-.07.076-.156.152-.22a.434.434 0 0 1 .235-.07c.125-.002.25.026.436.047l-.057.885c-.276.129-.477.057-.563-.081a1.622 1.622 0 0 1-.203-.561zm-.29 2.85c.59.168 1.185.327 1.764.53.21.073.38.263.575.404-.353.338-.353.338-.895.041-.22.348-.527.614-.976.596-.705-.028-1.34.489-2.129.235.045-.382.08-.779.139-1.174.072-.495.43-.79.916-.752.204.016.408.064.606.12zm2.11 2.165c-.19.099-.422.074-.56-.07-.127-.131-.19-.277-.275-.417-.157-.264-.062-.318.858-.454l-.024.941zm-1.56.787c-.145-.013-.369-.065-.4-.13-.102-.215-.135-.444-.189-.647.278-.19.541-.295 1-.163-.047.259-.085.534-.16.806-.015.055-.176.141-.251.134zM357.1 8.075c.02-.028.152-.061.22-.056.117.01.31.04.323.074.117.281.16.564-.14.925-.434-.346-.612-.626-.403-.943zm.473 5.855c-.033.11-.145.185-.22.182-.267-.013-.395-.165-.72-.778.307-.297.606.14 1-.222-.028.453-.014.67-.06.818zm-1.783-2.256c-.06.04-.305-.018-.352-.088-.079-.115-.135-.303-.076-.411.088-.16.285-.275.522-.488.063.28.141.46.13.638-.008.124-.109.272-.224.35zm-.247.999c-.322-.266-.584-.584-.453-1.024.093-.316-.193-.787.368-.976.276.397.465.82.577 1.272.094.38-.152.567-.492.728zm-.67-1.101c-.276.594-.414 1.226-.612 1.844-.263-.027-.306-.176-.295-.328.02-.304.055-.607.105-.91.093-.565.2-1.13.315-1.762.499.355.716.66.486 1.156zm-2.975-.102c-.013.058-.078.103-.124.159-.292-.024-.426-.19-.324-.483.123-.356.292-.693.429-1.045.046-.12.052-.258.106-.544-.21.143-.327.186-.39.27-.239.326-.46.664-.707 1.024-.275-.53-.277-.53-.301-1.193-.037-.998-.132-2.003.302-3.03.84.263 1.213.89 1.6 1.491.065.102.076.275.05.4a186.64 186.64 0 0 1-.641 2.95zm7.894-3.938c.127.118.256.18.241.233-.102.356-.202.438-.893.767-.238-.42.22-.667.652-1zm.253 5.386c.302-.125.553 0 .74.187-.228.51-.228.51-.87.762-.042-.148-.095-.283-.118-.42-.035-.206.001-.426.248-.53zm-11.142 5.916c.142.148-.069.206-.207.259-.575.217-1.167.42-1.744.637a1.554 1.554 0 0 1-.773.069c-.455-.06-.817-.21-1.229-.367 1.294-.346 2.524-.693 3.953-.598zm-1.98-1.08c.327.788.327.788-.629.946l.628-.947zm1.516-.039c.044-.002.092.098.137.15.12-.04.283-.047.353-.124.224-.248.52-.332.84-.398a18.856 18.856 0 0 1 3.342-.397c.616-.016 1.231-.062 1.846-.086.124-.004.25.029.48.058-.166.146-.245.245-.35.303-.53.29-1.063.575-1.604.847-.328.165-.662.33-1.013.441-.208.066-.456.03-.796.044.39-.516 1-.644 1.306-1.074l-.057-.077c-.695.21-1.282.598-1.879.97-.197.122-.379.267-.677.187.012-.232.259-.286.386-.419.11-.116.26-.201.344-.381-.14.042-.284.073-.416.13-.362.157-.742.294-1.073.496-.557.34-1.163.473-1.82.475-.136-.147-.022-.256.064-.385.14-.212.491-.224.547-.507l-.963.244c.321-.322.625-.479 1.003-.497zm8.995-2.33c.429.106.875.208 1.254.409.768.406 1.542.833 1.933 1.7-.484.506-1.06.91-1.635 1.315-.095.067-.282.022-.432.022.036-.318.269-.513.504-.708.167-.137.334-.275.495-.418.067-.061.12-.137.188-.214-.19-.145-.3.025-.395.098-.691.52-1.388 1.039-2.052 1.59-.37.308-.863.505-1.048.998-.031.084-.261.103-.48.179-.002-.351.25-.463.395-.629.18-.208.362-.415.555-.613.17-.177.357-.34.537-.508.201-.189.384-.403.61-.561.193-.137.437-.212.724-.344-.115-.091-.242-.23-.276-.212-.36.188-.758.132-1.123.113-.846-.044-1.687-.159-2.567-.248.108-.453.457-.642.735-.863.41-.326.88-.587 1.289-.917.248-.202.51-.26.79-.19zm2.848 4.119c-.245.215-.548.393-.95.427-.01-.096-.047-.172-.014-.204.211-.21.438-.412.856-.796.068.325.178.512.108.573zm-4.13.672c.126-.56.502-.828 1-1-.132.792-.147.8-1 1zm-3.249.22c-.213.133-.417.202-.798.133.058-.28.366-.478.667-.676.342-.226.709-.44 1.033-.675.169-.121.27-.274.401-.413.594-.205 1.228-.256 1.9-.168a7.971 7.971 0 0 1-1.517.829c-.632.268-1.147.633-1.686.97zm1-.517c-.334.2-.656.414-1.065.556-.219-.181.007-.266.122-.348.534-.38 1.09-.747 1.63-1.123.09-.06.149-.138.222-.208-.391.159-.807.3-1.17.482-.683.343-1.338.71-2.001 1.07-.162.088-.317.15-.521.066.008-.055-.01-.106.022-.128.75-.518 1.506-1.03 2.256-1.548.415-.287.951-.284 1.493-.243.058.004.091.14.135.213.116-.03.24-.05.344-.091.283-.112.53-.101.75.06-.159.06-.335.107-.466.184-.592.348-1.164.707-1.75 1.058zm-4.08.808c-.295.155-.306.148-.87-.003.596-.348 1.176-.69 1.764-1.028.438-.252.883-.5 1.333-.744a1.02 1.02 0 0 1 .699-.087c.19.038.276.17.13.248-.292.157-.602.301-.896.457-.721.384-1.435.775-2.16 1.157zm-.62-.456c-.116.044-.19.152-.296.216-.336.2-.615.118-.925-.148.096-.114.165-.23.273-.318.284-.229.6-.433.875-.668.606-.52 1.273-.869 2.225-.684.19.036.417-.044.627-.07-.932.607-1.736 1.274-2.78 1.672zm-16.269 18.041c.124-.225.154-.522.29-.734.871-1.358 1.922-2.49 3.293-3.165.352-.173.752-.214 1.112-.37 1.153-.502 2.366-.618 3.576-.764.433-.051.865-.109 1.418-.18-.115.21-.15.333-.225.399a6.77 6.77 0 0 1-.59.455c-.53.371-1.09.694-1.436 1.327-.094.17-.116.153-.809.301l.884-1.112c-.373.042-.52.184-.674.316-.331.286-.641.723-1.012.81-.54.126-.783.502-1.045.947-.07.118-.207.267-.413.041.166-.253.342-.508.503-.773.142-.235.403-.395.414-.774-.496.1-.667.578-.964.876-.284.286-.507.673-.974.764l-.056-.54c-.051.01-.12-.002-.147.03-.382.472-.748.962-1.138 1.423-.573.68-1.348 1.173-2.317 1.51-.014-.336.175-.542.31-.787zm10.236-3.91c.583-.055 1.152.015 1.91.155-1.383.302-2.584.566-3.788.824-.044.01-.115-.031-.213-.06.375-.249.706-.523 1.124-.727.25-.122.633-.161.967-.193zm5.213-.35c-.167.49-.56.684-.78.986-.22.307-.53.564-.746.873-.235.337-.544.594-.945.822l.155-.706c-.252.048-.34.244-.459.415-.278.402-.559.802-.847 1.198-.26.357-.617.608-1.112.786-.067-.731.822-1.055.785-1.717-.077.006-.157-.008-.179.017-.457.543-.91 1.089-1.36 1.637-.208.253-.44.496-.602.772-.178.301-.579.247-.781.45-.205.205-.318.484-.495.716-.049.064-.186.072-.463.17.465-.637.836-1.127 1.186-1.63.199-.287.363-.594.542-.891.524-.556.524-.556.57-1.066l-.636.99c-.145.123-.307.235-.432.373-.497.55-.983 1.11-1.474 1.664-.182.205-.362.406-.664.493-.257.072-.444.234-.604.436-.06.074-.229.08-.45.147.084-.392.296-.598.49-.815.57-.634 1.136-1.27 1.69-1.914.096-.11.146-.25.212-.38-.133.072-.285.128-.385.226-.811.795-1.613 1.597-2.412 2.4-.277.278-.587.489-1.104.548.19-.561.67-.845.997-1.22.36-.414.751-.806 1.135-1.202.362-.374.732-.741 1.101-1.115-.114-.15-.212-.016-.27.03-.418.33-.836.66-1.23 1.012-.625.556-1.228 1.131-1.847 1.692-.16.145-.315.285-.568.345-.222.053-.406.234-.678.403.024-.502.404-.697.652-.963.261-.28.537-.55.808-.824.263-.267.677-.414.851-.827-.419.024-.663.232-.91.419-.402.304-.797.616-1.18.94-.193.163-.36.331-.656.358-.123.01-.242.13-.344.219-.141.122-.263.261-.382.382-.186-.071-.225-.17-.125-.26.266-.242.546-.475.827-.703.37-.3.784-.563 1.11-.896.328-.336.718-.521 1.174-.652.332-.096.653-.225.977-.342.624-.227 1.24-.473 1.872-.68 1.264-.417 2.541-.801 3.804-1.22 1.044-.348 2.084-.705 3.003-1.293.33-.21.706-.364 1.18-.603zm-13.036 4.314c.053-.11.09-.233.167-.324.049-.058.155-.071.236-.104l.029.262c-.067.06-.126.14-.205.175-.063.026-.15-.004-.227-.01zm-3.723 1.728c.669-.255 1.273-.408 1.974-.413.32-.003.553-.038.746-.168.282-.191.627-.316 1.28-.26-.848.404-1.764.639-2.573.986l-1.427-.145zM324.8 55.778c.078-.033.249.15.513.325-.271.145-.402.262-.543.275-.091.007-.29-.187-.28-.207.078-.15.173-.334.31-.393zm-.704-1.84c.395-.582.695-1.222 1.185-1.75.156-.169.224-.41.351-.606.27-.417.53-.844.837-1.237.859-1.103 2.081-1.766 3.304-2.425a2.778 2.778 0 0 1 1.5-.313c1.305.082 2.61.067 3.916.076.138.001.275.049.56.102-.94.437-1.81.715-2.59 1.139-.8.436-1.695.543-2.519.871.004-.363.281-.607.434-.905.056-.11.084-.234.194-.548-.285.209-.418.272-.501.373-.431.517-.845 1.045-1.272 1.564-.178.215-.374.416-.563.623-.058-.522.346-.886.525-1.326.106-.263.274-.503.37-.783-.53.384-.857.928-1.225 1.427-.379.512-.627 1.11-1.102 1.75-.053-.643.325-.948.509-1.322.177-.36.399-.7.515-1.118-.122.13-.25.254-.364.391a5.602 5.602 0 0 0-.37.496c-.437.665-.85 1.345-1.304 2-.245.353-.503.725-1.02.882-.007-.53.505-.743.642-1.15.124-.369.534-.612.596-1.224-.654.793-1.217 1.426-1.643 2.161-.25.43-.532.842-.82 1.25-.095.133-.257.223-.492.265.115-.222.207-.457.347-.663zm6.507-4.65l.23-.149-.118.284-.112-.136zm6.117-2.445c-.205.926-.873 2.093-1.478 2.55.11-.376.2-.677.294-.995-.095.006-.144-.002-.152.011-.358.64-.725 1.274-1.06 1.923-.244.47-.475.94-.981 1.415-.036-.973.551-1.68.45-2.515-.46 1.052-.917 2.106-1.384 3.156-.134.302-.24.63-.665.871.22-1.023.701-1.889.792-2.86-.286.587-.556 1.181-.863 1.757-.295.555-.427 1.19-.9 1.665-.06-.836.5-1.507.658-2.388-.152.125-.263.174-.298.252-.396.872-.78 1.75-1.17 2.624-.033.075-.072.2-.124.209-.637.097-.516.655-.72 1.012-.091-.323-.001-.87.287-1.697.189-.546.531-1.047.61-1.795-.19.218-.304.306-.357.419-.264.563-.505 1.134-.766 1.698-.093.2-.218.386-.324.57-.306-.06-.38-.207-.302-.437.173-.503.355-1.004.508-1.512.045-.15.006-.323-.083-.504-.113.283-.229.566-.342.85-.125.314-.254.626-.369.942-.116.318-.204.644-.327.96a6.1 6.1 0 0 1-.366.755c-.026.047-.181.082-.233.054-.09-.049-.21-.16-.2-.233.026-.22.11-.432.167-.648.14-.535.362-1.059.293-1.65-.283.013-.23.232-.304.352-.074.12-.117.256-.172.386-.067.155-.128.313-.199.466-.06.128-.126.253-.197.376-.079.136-.167.268-.244.39-.226-.06-.188-.192-.163-.286.092-.352.193-.702.308-1.049.135-.412.312-.815.189-1.287-.346.735-.688 1.473-1.04 2.205-.11.228-.237.45-.379.66-.033.05-.172.076-.238.053-.07-.023-.164-.127-.156-.183.06-.413.125-.828.228-1.233.062-.241.196-.467.31-.73l.728-.224c.168-.34.112-.767.544-.946.158-.066.269-.174.48-.08.257.113.5-.02.555-.26.086-.384.39-.545.692-.72 1.317-.764 2.613-1.55 4.032-2.158 1.16-.497 2.236-1.167 3.358-1.745.328-.17.686-.287 1.073-.446zm.815-.073c.017.036.056.08.047.107-.009.027-.066.038-.102.056-.018-.036-.057-.08-.047-.107.01-.027.066-.038.102-.056zm-1.957 3.787c-.022-.015-.062-.033-.06-.045.003-.03.026-.058.04-.088.023.015.066.034.064.044-.005.032-.028.06-.044.09zm-.737 2.375c.085-.372.16-.687.231-1 .376.699.376.699-.23 1zm-9.86 2.608c-.036.054-.138.054-.216.08.016-.762.286-1.478.713-1.89.053-.05.14-.055.287-.11-.268.69-.418 1.36-.784 1.92zm-2.11 15.562c.147-.539.39-1.084.765-1.524.359-.418.623-.945.961-1.39.253-.332.53-.661.847-.9.475-.36.906-.773 1.336-1.197.39-.387.797-.761 1.233-1.07.873-.615 1.532-1.471 2.128-2.411a1.13 1.13 0 0 1 .157-.196c.037-.035.09-.045.188-.09-.27.978-.797 1.73-1.238 2.543-.448.826-.88 1.663-1.35 2.555-.017-.247-.03-.433-.048-.726-.389.407-.425.957-.71 1.325-.117-.205.156-.517-.202-.624-.292.552-.387 1.197-.54 1.83-.23-.174.034-.59-.31-.679-.312.902-.419 1.902-.91 2.723-.02.032-.096.017-.19.03l.195-1.554c-.177.173-.277.223-.303.304-.142.448-.26.907-.401 1.356-.05.156-.137.296-.251.537-.25-.517.161-1.002-.15-1.502-.166.522-.227.98-.306 1.433-.056.322-.094.65-.168.967-.155.665-.523 1.124-1.068 1.481-.15-1.156.057-2.212.334-3.221zm7.865-2.59c.037.228-.053.468-.085.702-.46-.803-.139-1.71-.906-2.483l.613-.517c.262.829.26 1.57.378 2.297zm-1.371-3.192c.094-.11.21-.208.308-.303.109.042.222.057.234.095.195.604.408 1.21-.01 1.905-.171-.96-.171-.96-.76-1.37.07-.103.138-.222.228-.327zm1.628-2.002c.52.276.238.481.253.672.018.231-.006.473.107.69.114.219.145.403-.152.638-.533-.641-.584-1.255-.208-2zm.269 4.968c-.07-.08-.183-.156-.193-.243-.011-.098.07-.208.153-.416.073.219.13.33.14.446.006.067-.064.14-.1.213zm-2.008 1.657c-.124-.548-.254-1.001-.32-1.462-.04-.29-.1-.552-.401-.728l.418-.81c.443.626.463 1.273.5 1.899.02.332.262.708-.197 1.1zm.221 2.182c-.054-.184-.108-.304-.123-.427-.056-.494-.087-.99-.154-1.482-.032-.223-.16-.44-.179-.662-.007-.103.145-.211.31-.429.432.822.613 1.504.685 2.203.033.311-.091.558-.539.797zm-1.645-1.515c-.075-.3.011-.588.579-.756.117.985.504 1.92.37 3-.713-.756-.767-1.513-.95-2.244zm-1.56 2.73l-.646-2.366.45-.634c.054.132.1.204.117.287.137.668.265 1.34.405 2.008.066.314.038.557-.325.705zm.21-3.593c.008-.032.146-.032.224-.047.019.112.052.225.046.337-.001.021-.151.035-.275.061-.002-.124-.021-.243.005-.35zm-.223 4.563c-.255-.221-.338-.59-.452-.91-.147-.413-.25-.856-.37-1.288-.092-.339-.09-.34.223-.802.385.882.635 1.815.724 2.831.004.049-.082.113-.125.17zm-1.485.714l-.723-1.793c.09-.072.18-.143.263-.207.045.036.089.049.102.083.105.282.203.569.306.851.103.28.21.556.33.871l-.278.195zm-1.215.728c-.456-.333-.29-1.24-.72-1.736l.32-.264c.368.467.546.95.68 1.847l-.28.153zm-1.826-.392c.07-.369.33-.376.6-.433.215-.044.41-.202.616-.31.294.256.73.379.784.902-.99.153-1.096.145-2-.16zm30.443-4.867a1.488 1.488 0 0 0-.122-.502c-.303-.649-.5-1.337-.799-1.992-.305-.663-.813-1.034-1.416-1.32-.45-.213-.932-.3-1.427-.05-.228.116-.495.166-.75.218-.115.024-.244-.018-.423-.035.211-.275.38-.473.523-.688.383-.576.796-1.137 1.044-1.788.173-.456.272-.946.497-1.372.387-.734.2-1.392-.153-2.045-.588-1.082-1.513-1.784-2.607-2.322-.504-.247-.908-.27-1.36.08a2.009 2.009 0 0 0-.57.635c-.135.248-.313.473-.525.787-.11-.367-.227-.63-.264-.902-.106-.767-.46-1.423-.887-2.044-.333-.485-.844-.578-1.366-.286-.202.113-.392.258-.606.339-.708.27-1.308.644-1.825 1.232-.78.886-1.607 1.723-2.095 2.818a.759.759 0 0 1-.093.147c-.624.821-.452 1.698-.126 2.551.173.453.487.85.714 1.283.331.634.819 1.107 1.418 1.485.083.052.132.157.248.299-1.124.374-2.01 1.014-2.837 1.74-.236.208-.47.439-.633.702-.24.388-.407.814-.904.97-.124.04-.234.176-.315.292-.254.367-.62.598-.976.85-.355.25-.72.497-1.03.797-.984.954-2.121 1.716-3.277 2.42-1.35.82-2.438 1.948-3.71 2.851-.07.05-.127.119-.192.176-.28.249-.55.513-.846.742-1.033.802-1.999 1.67-2.808 2.701-.517.659-1.038 1.314-1.765 1.772-.14.088-.246.242-.344.383-.344.494-.716.965-1.087 1.438-.514.656-.965 1.362-1.555 1.963-.141.143-.284.303-.364.482-.23.517-.663.831-1.078 1.162.063-.725.137-1.441.183-2.16.033-.516.063-1.022.252-1.519.11-.285.158-.626.115-.925-.075-.539.016-.969.583-1.265-.29-.524.076-.894.292-1.283.252-.453.601-.85.862-1.298.78-1.338 1.818-2.449 2.985-3.475.266.012.538.198.822-.002.077-.054.225-.013.34-.01.69.021 1.38.048 2.07.064.142.003.287-.025.426-.058a5.883 5.883 0 0 0 2.646-1.418c.335-.305.7-.576 1.087-.89.112-.665.586-1.172 1.056-1.682.077-.084.224-.15.237-.24.08-.56.466-.987.644-1.496.194-.555.482-1.034.829-1.386.035-.4.02-.724.1-1.023.12-.444.326-.864.458-1.305.363-1.207.75-2.41.843-3.679.02-.285.03-.582-.028-.859a2.895 2.895 0 0 1 .022-1.201c.088-.424.225-.84.276-1.268.058-.48.048-.969.051-1.454 0-.047-.119-.13-.185-.133-.067-.001-.196.078-.195.119.012.436-.157.759-.527 1.004-.103.069-.124.254-.193.381-.139.252-.255.523-.434.744-.447.554-.92 1.085-1.253 1.723-.092.177-.206.368-.362.482-.592.434-.962 1.075-1.513 1.544-.109.094-.192.219-.306.304-.928.692-1.871 1.364-2.79 2.068-.684.524-1.43.979-1.985 1.66-.217.265-.427.539-.662.788-.882.933-1.267 2.113-1.68 3.281a.814.814 0 0 0-.049.254c-.012.633-.057 1.269-.012 1.898.044.605.027 1.145-.523 1.541-.137.098-.214.274-.342.39-1.192 1.083-2.085 2.39-2.895 3.762-.112.189-.182.436-.443.467.032-.91.044-1.824.104-2.734.037-.567-.025-1.16.314-1.68.07-.108.079-.286.052-.42-.08-.413.025-.8.107-1.196.07-.339.19-.689.163-1.023-.061-.709.146-1.368.268-2.044.087-.482.171-.965.274-1.443.06-.282.11-.577.239-.83.468-.925.258-1.988.633-2.93.038-.096-.008-.228-.024-.342-.096-.67.018-1.317.204-1.957a3.24 3.24 0 0 0 .115-.507c.12-.995.542-1.873 1.05-2.718.283-.468.586-.924.869-1.392.57-.94 1.166-1.858 2.16-2.427.368-.502.88-.481 1.414-.383l.343.062c.854.158 1.704.351 2.564.46.622.078 1.246.096 1.881-.102.594-.184 1.069-.534 1.595-.819.935-.505 1.685-1.213 2.419-1.956.446-.452.888-.915 1.387-1.305.423-.332.746-.722.99-1.182.27-.513.545-1.015.997-1.402.126-.108.198-.28.29-.425.41-.654.818-1.31 1.229-1.965a.758.758 0 0 1 .11-.134c.973-.97 1.59-2.19 2.343-3.313.098-.147.102-.357.149-.536-.202.03-.32.107-.385.215-.14.231-.3.45-.571.497a.775.775 0 0 0-.55.366c-.094.137-.257.23-.397.33-.872.621-1.903.626-2.907.717-.373.034-.752-.003-1.13-.012-.926-.019-1.856 0-2.777-.076-.482-.04-.932-.01-1.366.158-.485.187-.958.409-1.418.65-.489.253-.956.546-1.43.825-.098.058-.204.12-.275.205-.442.53-.912 1.042-1.301 1.61-.733 1.068-1.472 2.14-2.1 3.27-.325.582-.73 1.179-.715 1.912.002.126-.083.272-.17.376-.2.246-.399.508-.648.7-.899.688-1.442 1.645-2.024 2.574-.152.244-.265.511-.41.76-.051.085-.146.147-.313.31.08-.525.125-.918.203-1.304.069-.336.176-.664.267-.995.038-.138.117-.275.114-.412a3.8 3.8 0 0 1 .582-2.133c.06-.096.082-.216.114-.326.22-.746.433-1.495.661-2.238.11-.358.195-.74.39-1.05.191-.31.25-.637.338-.967.237-.896.563-1.76 1.113-2.514.178-.244.307-.48.35-.772a6.01 6.01 0 0 1 1.053-2.628c.283-.399.549-.81.81-1.199.287-.043.54-.023.737-.268.157-.194.391-.333.609-.47.293-.183.616-.321.902-.514 1.137-.768 2.416-1.23 3.622-1.726.237.103.412.228.601.253 1.273.17 2.45.699 3.701.949.198.04.37.111.582.062.193-.045.42-.073.599-.014.272.089.496.023.754-.038.76-.179 1.528-.326 2.297-.46.414-.073.768-.25 1.105-.484.19-.131.376-.29.589-.357.317-.097.568-.277.824-.469.231-.173.47-.34.716-.492.348-.215.637-.486.921-.779.642-.662 1.33-1.279 1.986-1.928.347-.344.675-.71.991-1.083.355-.417.685-.855 1.029-1.282.144-.18.29-.356.443-.527.268-.3.509-.638.822-.881.423-.328.719-.744 1.026-1.16.114-.154.053-.26-.11-.324-.948.627-2.267 1.319-3.019 1.505-1.087.27-2.163.657-3.318.44-.083-.016-.174.008-.26.014-.895.063-1.792.106-2.684.194-.95.095-1.9.21-2.843.363-.482.079-.943.283-1.422.393a6.816 6.816 0 0 0-1.689.627c-.663.354-1.244.804-1.836 1.266-.741.578-1.262 1.247-1.581 2.11-.199.538-.444 1.058-.645 1.532-1.73.785-3.433 1.509-4.969 2.655.172-.825.36-1.56.858-2.184.36-.452.655-.947.719-1.544.008-.082.062-.16.094-.24.511-1.26 1.285-2.37 2.04-3.487.58-.855 1.254-1.64 1.78-2.54.388-.663.973-1.21 1.42-1.844.509-.722 1.167-1.336 1.55-2.154.131-.28.329-.567.573-.752.596-.45.966-1.059 1.36-1.665.281-.433.615-.833.937-1.238.268-.338.568-.65.825-.996.31-.415.582-.858.885-1.278.098-.136.238-.243.364-.357.123-.112.277-.199.376-.327.492-.633 1.153-1.024 1.85-1.4.88-.473 1.921-.444 2.785-1.02.19.405.43.642.876.637.22-.003.448.113.658.208.366.165.71.381 1.082.528.592.233 1.208.404 1.797.642.484.195.932.467 1.49.416.119-.011.253.11.377.177.22.122.415.127.645-.023.183-.118.439-.236.636-.203.397.067.734-.067 1.1-.139.39-.077.788-.075 1.189-.177.585-.148 1.176-.27 1.746-.479.975-.356 1.953-.707 2.929-1.061.027-.01.05-.027.075-.044.34-.242.726-.34 1.134-.398.552-.078.776-.425.55-.9-.183-.39-.433-.75-.67-1.112-.814-1.25-1.948-1.99-3.44-2.27-1.1-.206-2.194-.123-3.291-.133a8.414 8.414 0 0 0-1.12.083c-.863.106-1.726.21-2.584.35-1.062.172-2.098.467-2.936 1.163-.413.343-.865.66-1.152 1.156-.615 1.065-.388.759-1.415 1.124-.164.058-.335.097-.503.14-.847.214-1.67.486-2.442.903-.056.03-.144.001-.31 0 .168-.224.272-.389.4-.532.328-.365.773-.668.976-1.089a5.405 5.405 0 0 1 1.537-1.933c.043-.035.068-.093.105-.138.986-1.167 1.965-2.343 3.117-3.355.477-.42.892-.886 1.287-1.377.144-.179.315-.336.476-.5.665-.675.894-.71 1.606-.135a30.372 30.372 0 0 0 1.925 1.462 5.695 5.695 0 0 0 1.709.81c1.068.29 2.035.82 3.085 1.152.643.203 1.249.431 1.931.376.145-.012.293-.014.436.007.788.114 1.416-.277 1.993-.699.624-.456.605-1.543.05-1.89-.216-.137-.507-.168-.702-.324-.192-.153-.283-.426-.464-.602-.137-.134-.34-.21-.522-.291-.317-.142-.636-.286-.966-.394-.317-.104-.648-.164-1.004-.252.156-.307.453-.294.67-.412.83-.452 1.478-1.029 1.41-2.08-.022-.345-.068-.688-.07-1.031-.007-.887-.49-1.457-1.244-1.817-.662-.315-1.35-.536-2.094-.2-.389.175-.8.296-1.28.47.037-.38.082-.71.1-1.043.016-.314.073-.65-.01-.941-.158-.548-.404-1.07-.607-1.586-.227-.094-.424-.152-.596-.253-.37-.215-.729-.159-1.078.023-.23.12-.439.28-.659.42l-.573.354c.007-.785-.258-1.37-.614-1.878L350.232 0c-.278.392-.731.722-.795 1.268-.09.771-.214 1.556-.158 2.324.094 1.33-.025 2.637-.23 3.94-.082.524-.118 1.024.056 1.534.179.53.002.978-.441 1.287-.407.282-.755.625-1.133.932-.41.333-.705.754-1.09 1.1-.515.463-.974.986-1.446 1.494-.629.677-1.221 1.39-1.88 2.038-.455.45-.87.922-1.252 1.433-.566.758-1.15 1.503-1.718 2.261-.397.531-.807 1.058-1.163 1.616a31.59 31.59 0 0 1-1.753 2.462c-.673.863-1.333 1.736-2.014 2.592-.313.394-.66.759-1.038 1.19-.142-.47-.074-.833.044-1.192.044-.137.145-.268.148-.403.026-.928.267-1.82.412-2.73a4.125 4.125 0 0 1 .8-1.869c.25-.327.453-.654.59-1.033.049-.136.086-.28.162-.4.85-1.342 1.099-2.892 1.536-4.375.047-.157-.003-.342 0-.514.022-1.225-.269-2.414-.603-3.565-.317-1.096-.363-2.199-.464-3.308-.01-.113-.01-.232.012-.342.13-.63.044-1.254-.01-1.883-.044-.518-.038-1.036.345-1.47a.69.69 0 0 0 .14-.393c.01-.165.002-.38-.214-.414a.514.514 0 0 0-.386.12c-.138.137-.2.35-.334.491-.721.752-1.276 1.635-1.937 2.427-1.215 1.46-2.09 3.109-2.955 4.771-.141.272-.166.606-.227.915-.06.307-.035.646-.16.92-.166.363.186.662.036 1.003-.055.125-.003.3-.067.416-.178.32-.135.586.072.881.109.155.129.377.167.573.07.367.104.744.192 1.107.154.635.221 1.33.536 1.88.483.843 1.118 1.607 1.745 2.357.205.244.3.449.31.754.025.694-.069 1.378-.146 2.063-.064.57-.15 1.137-.237 1.704-.056.368-.177.73-.184 1.098-.008.417-.12.794-.258 1.173-.059.163-.206.335-.18.48.086.487-.23.74-.516 1.02-.186.183-.38.357-.561.544-.28.29-.58.567-.818.888-.431.577-.815 1.19-1.235 1.775-.201.28-.444.53-.66.799-.253.313-.52.617-.74.953-.584.892-1.089 1.827-1.563 2.782-.484.974-1.029 1.917-1.577 2.929-.073-.092-.14-.139-.134-.173.194-1.136.347-2.274.15-3.424-.053-.317.044-.562.235-.797.343-.424.684-.85 1.02-1.28a.942.942 0 0 0 .167-.297c.175-.578.347-1.157.503-1.74.043-.162.058-.345.033-.51-.08-.54-.153-1.085-.288-1.613a19.885 19.885 0 0 0-.612-1.975c-.39-1.05-.61-2.167-1.257-3.117a1.112 1.112 0 0 1-.166-.573c-.012-.564-.197-1.068-.438-1.568a6.3 6.3 0 0 1-.402-1.048c-.17-.611-.412-1.192-.633-1.784-.229-.611-.445-1.237-.39-1.924.025-.31-.032-.62.057-.938.075-.266-.122-.512-.386-.59-.237-.071-.385.057-.508.233-.033.048-.068.096-.094.147-.541 1.085-1.344 2-1.985 3.02-.035.053-.134.067-.247.12-.13-.43-.392-.714-.755-.924-.196-.113-.346-.302-.527-.445-.156-.122-.315-.247-.49-.333-.339-.164-.689-.305-1.036-.45-.225-.092-1.845-.156-2.068-.085a.923.923 0 0 0-.236.107c-1.24.84-2.073 1.923-2.043 3.493.005.256.073.512.116.767.07.4.077.79-.171 1.18-.399-.303-.788-.587-1.164-.888-.785-.628-1.625-.83-2.576-.387-.219.101-.39.219-.514.435-.387.683-.676 1.389-.733 2.184a7.947 7.947 0 0 1-.218 1.363c-.274 1.094-.04 2.116.399 3.111.194.44.519.753 1.026.84.343.058.683.132 1.022.211.12.028.297-.004.316.236-.102.039-.202.084-.307.115-.458.137-.812.404-1.127.766-.498.572-.865 1.208-1.207 1.882a1.509 1.509 0 0 0-.107 1.16c.084.3.225.6.407.854.437.608.926 1.175 1.487 1.679.803.72 1.764.876 2.76.643.754-.176 1.363-.638 1.591-1.439.119-.415.2-.84.293-1.263.087-.39.107-.435.45-.847.066.288.134.529.172.774.05.313.077.63.11.945.12 1.192.538 2.231 1.55 2.987l1.117.08c.041.21.121.38.097.535-.123.805-.107 1.612-.033 2.414.132 1.433-.006 2.875.181 4.304.019.141.004.29-.016.432-.018.125.015.295-.247.328-.166-.237-.371-.48-.522-.752-.36-.651-.962-1.061-1.5-1.536-.101-.09-.258-.12-.393-.168a6.893 6.893 0 0 1-1.654-.866c.192-.463.202-.468.042-.822-.154-.338-.344-.66-.496-1-.414-.924-1.12-1.608-1.883-2.23-.784-.641-1.708-1.075-2.586-1.575-.273-.156-.588-.242-.885-.358-.27-.105-.54-.21-.812-.31-.542-.203-1.084-.404-1.628-.603-.272-.099-.56-.166-.817-.295-.544-.272-1.06-.6-1.61-.857-.335-.155-.526-.437-.787-.654-.316-.264-.13-.671-.37-.957l-.558.038c-.026-.056-.079-.13-.096-.212-.053-.257-.173-.43-.466-.403-.204.019-.427.039-.51.262-.095.251.046.443.219.61.062.06.153.101.195.172.161.268.36.53.45.822.289.93.512 1.882.761 2.823.218.822.495 1.622.95 2.307.571.856 1.11 1.735 1.696 2.58.39.563.747 1.159 1.295 1.603.122.099.2.278.245.435.082.29.262.45.553.449.416-.003.556.235.597.592.034.299.147.553.423.698.238-.04.476-.142.684-.1.205.044.378.234.592.376.465-.322.874-.116 1.263.191.45-.183.868-.385 1.307-.523.549-.174.974-.52 1.323-.935.368-.438.738-.806 1.347-.849.133-.01.261-.096.347-.13.261.13.483.212.669.344.374.263.761.522 1.082.843.323.324.557.736.858 1.085a3.4 3.4 0 0 1 .829 1.867c.11.973.175 1.95.254 2.926.036.46.096.92.083 1.378-.039 1.348.002 2.7-.196 4.044-.057.387.043.798.065 1.199.008.168.033.344-.005.503a190.104 190.104 0 0 1-.874 3.617c-.243.949-.441 1.917-.869 2.805-.385.797-.534 1.644-.65 2.5-.148 1.108-.26 2.22-.4 3.442l-2.641-3.419c.001-.144-.025-.405.01-.657.076-.528-.06-1.022-.195-1.519-.098-.36-.238-.715-.278-1.082-.11-.997-.537-1.879-.975-2.753a8.38 8.38 0 0 0-1.498-2.107 12.782 12.782 0 0 0-2.794-2.18c-1.053-.6-2.145-1.145-3.064-1.954-.41-.361-.877-.67-1.08-1.216-.068-.182-.09-.173-.585-.356-.098.71-.23 1.416-.287 2.129-.095 1.171-.396 2.329-.224 3.52.149 1.026.277 2.055.682 3.023.166.398.437.784.481 1.195.053.494.509.678.642 1.08.018.054.064.1.076.155.092.44.283.805.705 1.024.07.035.138.124.157.202.187.723.966.963 1.29 1.572.512.157.836.613 1.313.823.473.208.942.465 1.44.565.473.096.985.051 1.472.002.427-.044.857-.134 1.214-.42.263-.212.547-.398.872-.632.275.312.556.6.8.915.264.341.44.769.753 1.05.4.358.666.794.942 1.229.398.625.65 1.285.407 2.048a2.829 2.829 0 0 0-.111.769c-.03 1.22-.298 2.4-.56 3.584a5.926 5.926 0 0 0-.129.854c-.076 1.062-.099 2.13-.217 3.187-.096.86-.204 1.716-.234 2.582-.005.171-.031.344-.054.515-.085.655-.173 1.309-.26 1.963-.167 1.225-.333 2.45-.502 3.675-.007.055-.042.107-.06.162-.274.83-.36 1.685-.35 2.556.003.255-.04.515-.097.765-.12.532-.31 1.053-.386 1.59-.101.712-.104 1.436-.181 2.15-.044.407-.044.843-.475 1.32.025-1.054-.76-1.672-.833-2.564-.01-.13-.128-.254-.207-.374-.483-.748-.97-1.494-1.44-2.217.119-.594.31-1.124.313-1.655.006-1.292-.002-2.581-.165-3.875-.15-1.191-.605-2.237-1.24-3.19-.539-.805-.906-1.757-1.752-2.343-.066-.046-.093-.145-.14-.218-.25-.398-.59-.705-.977-.974a7.726 7.726 0 0 1-1.476-1.329c-.298-.35-.63-.674-.965-.993-.92-.875-1.845-1.744-2.774-2.609-.158-.146-.263-.286-.245-.517.036-.49-.285-.79-.626-1.07-.098-.08-.332-.002-.36.13-.03.133-.058.294-.009.41.105.25.105.485.085.753-.107 1.404-.193 2.81-.258 4.216-.042.89-.05 1.782-.048 2.673.003 1.594.265 3.153.728 4.676.116.383.298.754.502 1.1.191.322.435.606.438 1.012 0 .094.107.19.173.28.134.185.289.356.408.55.245.394.517.757.866 1.074.272.247.474.57.72.848.087.1.205.177.322.244.172.1.358.178.533.274.48.263.94.573 1.444.778.244.1.567.003.854.006a.687.687 0 0 1 .25.062c.362.153.74.132 1.117.115.287-.012.566-.037.86.03.27.06.567.002.862-.003.03.028.088.06.11.107.35.758.698 1.514 1.316 2.108.08.078.147.186.182.293.19.572.464 1.111.678 1.668.4 1.044.533 2.167.744 3.264.027.136-.004.288-.028.429-.204 1.227-.254 2.458-.207 3.7.02.543.01 1.084.04 1.629.045.83-.001 1.664-.01 2.496-.008.778.04 1.56-.037 2.331-.115 1.178-.23 2.351-.135 3.533.063.797.046 1.604.342 2.373.153.398.297.817.331 1.236.027.333.126.602.274.887.425.818.856 1.651.766 2.607-.047.506.499.787.409 1.284-.005.027.078.072.124.102.022.015.054.013.15.032.039-.192.073-.383.115-.57.036-.163.037-.354.13-.476.269-.36.229-.754.004-1.046-.264-.342-.251-.703-.259-1.066-.019-.916-.068-1.84.028-2.748.078-.736-.227-1.485.099-2.208.04-.09-.026-.224-.036-.34-.036-.4-.088-.8-.1-1.202-.038-1.295-.077-2.59-.08-3.885 0-.574.057-1.153.144-1.721.134-.886.29-1.764.208-2.666-.017-.197.024-.404.07-.6.105-.456.088-.915.053-1.375-.01-.143-.056-.292-.03-.427.2-1.019.372-2.046.637-3.05.242-.92.221-1.878.492-2.788a.168.168 0 0 0 .004-.086c-.163-.663-.034-1.315.065-1.97.038-.256.025-.518.05-.777.126-1.314.24-2.631.72-3.882.155-.404.338-.8.452-1.216.209-.761.64-1.407 1.029-2.076.26-.448.538-.885.806-1.328.133-.22.25-.451.393-.665.43-.647.856-1.297 1.307-1.93.21-.296.37-.656.805-.738.12-.023.245-.165.31-.284.461-.84 1.24-1.259 2.09-1.586.675-.26 1.36-.499 2.033-.764.547-.216 1.114-.294 1.696-.31.422.358.876.675 1.247 1.068a15.404 15.404 0 0 0 2.138 1.897c.37.269.793.473 1.209.67.364.172.756.283 1.129.436 1.071.438 2.129.906 3.307 1.02.866.084 1.743.165 2.581.378.767.194 1.496.17 2.236-.008 1.604-.384 3.203-.79 4.805-1.181.165-.04.341-.044.512-.046.448-.007.635-.238.505-.64-.145-.445-.513-.868-1.02-1.173-.049-.03-.091-.071-.138-.104-.52-.363-1.01-.771-1.65-.925-.107-.026-.195-.122-.296-.18-.981-.553-1.958-1.117-2.95-1.655-.588-.319-1.141-.677-1.632-1.132a1.5 1.5 0 0 0-.419-.294 48.342 48.342 0 0 0-2.172-.853 2.62 2.62 0 0 0-.93-.163c-.635.018-1.268.103-1.902.153a11.09 11.09 0 0 0-2.882.593c-.245.088-.497.178-.753.207-.93.105-1.66.6-2.373 1.176-.574-.059-1.138.051-1.69.256-.488.18-.983.346-1.476.514-.438.15-.877.3-1.32.436-.079.024-.178-.018-.344-.039.897-.96 1.757-1.81 2.698-2.582 1.074-.881 2.124-1.79 3.189-2.684.243-.205.487-.413.75-.589 1.105-.74 2.22-1.464 3.325-2.202.141-.094.246-.24.372-.359.74-.691 1.578-1.247 2.484-1.85 0 .391-.053.709.011 1.001.296 1.333.856 2.56 1.616 3.694.242.362.555.659.984.812.488.175.973.358 1.399.516a2.617 2.617 0 0 0 1.142-.726 4.71 4.71 0 0 0 .975-1.512c.213-.535.473-1.05.719-1.571.046-.098.123-.181.244-.354.042.324.079.548.099.773.05.579.194 1.131.414 1.67.238.584.44 1.18.664 1.77.05.133.096.284.19.381.482.496.949 1.009 1.563 1.362.429.248.864.333 1.334.186.331-.103.658-.221.981-.348.813-.319 1.439-1.21 1.41-2.071-.015-.486-.104-.97-.17-1.454a1.929 1.929 0 0 0-.3-.794c-.23-.362-.5-.728-.578-1.24.346.173.617.331.905.447.297.119.59.225.695.545.24-.058.47-.196.618-.136.593.244 1.083-.084 1.583-.249.577-.189.963-.884.929-1.51a61.963 61.963 0 0 0-.153-2.064z" fill="#838383"/></g></svg>